#!OML:ASF F:\VICON\USERDATA\INSTALL\rory3\rory3.ASF
:FULLY-SPECIFIED
:DEGREES
181
root -6.06418 18.1772 -20.3661 291.32 73.284 -65.8267
lowerback 7.07482 -1.86377 14.6697
upperback -4.55788 0.00261078 6.53333
thorax -9.09051 -0.499686 -1.12708
lowerneck -3.01792 -20.9736 -16.8647
upperneck 16.235 -29.0853 9.84905
head 9.46929 -14.1027 2.16968
rclavicle -1.26228e-014 -1.59028e-014
rhumerus -11.2308 -42.6027 -20.967
rradius 19.4045
rwrist -8.04576
rhand 1.84246 2.82438
rfingers 7.12502
rthumb 27.3539 -25.2107
lclavicle -1.26228e-014 -1.59028e-014
lhumerus -187.755 -191.954 184.675
lradius 22.3395
lwrist -29.1249
lhand -7.04098 24.3152
lfingers 7.12502
lthumb 18.8314 53.4237
rfemur 26.8853 -140.69 -93.6637
rtibia 31.0967
rfoot 34.2399 -24.6931
rtoes 62.444
lfemur 6.11163 -2.82852 -13.8652
ltibia 15.3232
lfoot -10.6946 33.9288
ltoes -9.21245
182
root -6.07461 18.1502 -20.3099 299.216 72.7443 -58.9482
lowerback 6.5581 -1.58016 14.3778
upperback -4.75208 0.259855 6.53415
thorax -8.95869 -0.362736 -1.01386
lowerneck -3.3937 -20.7853 -16.888
upperneck 17.1553 -28.8806 9.89697
head 9.84361 -13.9567 2.14541
rclavicle -9.93923e-016 -2.78299e-014
rhumerus -10.0719 -41.6005 -22.49
rradius 18.9437
rwrist -9.2255
rhand 1.59824 2.88282
rfingers 7.12502
rthumb 27.1203 -25.1889
lclavicle -9.93923e-016 -2.78299e-014
lhumerus -191.089 -190.839 184.179
lradius 22.0668
lwrist -27.3664
lhand -8.89859 24.0698
lfingers 7.12502
lthumb 17.0441 53.3421
rfemur 27.3758 -142.21 -91.6482
rtibia 31.9236
rfoot 37.7365 -22.1137
rtoes 62.5939
lfemur 5.66404 -3.01774 -14.1517
ltibia 14.971
lfoot -6.73891 33.318
ltoes -17.0356
183
root -6.08271 18.1085 -20.2492 306.488 72.4564 -52.6434
lowerback 5.12745 -1.38686 12.7017
upperback -4.20817 0.0700962 7.38792
thorax -7.4904 -0.246293 0.767938
lowerneck -4.70598 -20.5765 -17.2741
upperneck 17.2639 -28.3026 9.63802
head 10.0433 -13.6678 2.07079
rclavicle 3.93594e-014 -6.20208e-014
rhumerus -7.05026 -42.7786 -24.0155
rradius 18.4791
rwrist -8.73342
rhand 1.84758 3.00479
rfingers 7.12502
rthumb 27.3588 -25.0295
lclavicle 3.93594e-014 -6.20208e-014
lhumerus -195.221 -193.99 184.433
lradius 21.6688
lwrist -28.4484
lhand -9.5965 24.2758
lfingers 7.12502
lthumb 16.3722 53.6048
rfemur 28.5519 -142.474 -91.2116
rtibia 32.2003
rfoot 38.774 -22.6142
rtoes 62.1411
lfemur 4.84285 -3.36758 -14.901
ltibia 15.2377
lfoot -1.74043 32.5316
ltoes -28.2262
184
root -6.08802 18.0467 -20.1807 314.348 72.4099 -45.7007
lowerback 4.84179 -0.814317 12.0955
upperback -4.72949 0.693854 6.58881
thorax -7.81573 0.0144422 0.177357
lowerneck -4.19247 -20.4929 -16.6119
upperneck 17.664 -28.3738 9.65818
head 10.0127 -13.6754 2.04861
rclavicle -4.37326e-015 -1.59028e-014
rhumerus -9.14578 -43.2413 -23.1853
rradius 18.7244
rwrist -8.41273
rhand 2.43639 2.99415
rfingers 7.12502
rthumb 27.9219 -24.9499
lclavicle -4.37326e-015 -1.59028e-014
lhumerus -196.716 -194.684 184.07
lradius 21.4007
lwrist -29.3556
lhand -9.09037 24.9592
lfingers 7.12502
lthumb 16.8594 54.2473
rfemur 28.9805 -143.295 -90.4012
rtibia 32.4557
rfoot 40.3535 -23.4151
rtoes 61.6151
lfemur 3.87182 -4.12498 -16.1792
ltibia 15.8636
lfoot -1.36417 31.9402
ltoes -30.6496
185
root -6.0889 17.9797 -20.1147 321.83 72.0182 -39.0842
lowerback 4.58256 -0.294874 11.8001
upperback -5.24194 1.26796 5.64341
thorax -8.14391 0.230616 -0.727181
lowerneck -3.75672 -20.516 -15.8048
upperneck 18.1487 -28.5879 9.60685
head 10.0092 -13.7378 1.95308
rclavicle -5.76476e-015 5.24792e-014
rhumerus -11.2587 -43.6982 -22.4198
rradius 18.8837
rwrist -8.04918
rhand 2.77018 2.84523
rfingers 7.12502
rthumb 28.2409 -25.0465
lclavicle -5.76476e-015 5.24792e-014
lhumerus -198.001 -195.778 183.31
lradius 20.7917
lwrist -31.0436
lhand -7.65652 25.3294
lfingers 7.12502
lthumb 18.2393 54.4943
rfemur 30.1457 -143.053 -90.8471
rtibia 32.7628
rfoot 40.8858 -23.8552
rtoes 61.8224
lfemur 2.86012 -4.86563 -17.2801
ltibia 16.792
lfoot -5.49013 31.4967
ltoes -25.5669
186
root -6.09471 17.9348 -20.0717 327.399 71.0686 -34.2287
lowerback 3.993 -0.0308959 11.241
upperback -5.2696 1.44717 5.4416
thorax -7.79829 0.349376 -0.658026
lowerneck -3.81227 -20.2416 -15.2378
upperneck 18.3264 -28.2588 9.60416
head 9.95415 -13.5481 1.95905
rclavicle 3.16068e-014 -7.15625e-015
rhumerus -11.1734 -45.0023 -22.5369
rradius 18.4244
rwrist -7.09179
rhand 2.89115 3.06837
rfingers 7.12502
rthumb 28.3565 -24.8042
lclavicle 3.16068e-014 -7.15625e-015
lhumerus -200.066 -197.279 182.472
lradius 19.6048
lwrist -32.5337
lhand -5.78809 24.9184
lfingers 7.12502
lthumb 20.0361 53.9054
rfemur 31.8656 -142.214 -91.3811
rtibia 33.4183
rfoot 41.3404 -22.5121
rtoes 62.0395
lfemur 1.96331 -5.48404 -17.8678
ltibia 17.8196
lfoot -10.3264 30.6844
ltoes -18.5197
187
root -6.10318 17.875 -20.0103 331.434 69.9249 -30.7186
lowerback 3.68343 0.16683 10.8526
upperback -5.27311 1.60943 5.30595
thorax -7.59885 0.448333 -0.606204
lowerneck -3.73216 -19.962 -14.7847
upperneck 18.3622 -27.9544 9.78618
head 9.87672 -13.3706 2.04236
rclavicle 2.33572e-014 -6.2816e-014
rhumerus -11.4819 -47.1468 -22.2202
rradius 17.7575
rwrist -5.27516
rhand 2.87272 4.11233
rfingers 7.12502
rthumb 28.3389 -23.7632
lclavicle 2.33572e-014 -6.2816e-014
lhumerus -202.172 -199.476 181.274
lradius 18.7403
lwrist -35.043
lhand -4.16195 24.9108
lfingers 7.12502
lthumb 21.5984 53.7263
rfemur 33.0904 -141.7 -90.838
rtibia 34.0924
rfoot 41.8788 -21.5725
rtoes 62.3189
lfemur 1.25372 -5.78334 -18.1284
ltibia 18.8275
lfoot -13.0611 29.8458
ltoes -14.9669
188
root -6.11622 17.8009 -19.9375 335.262 68.8779 -27.3422
lowerback 3.3428 0.270756 10.1881
upperback -5.06196 1.61537 5.35636
thorax -7.17019 0.505522 -0.192975
lowerneck -4.34838 -19.6719 -15.0357
upperneck 18.6937 -27.6298 10.3943
head 10.1981 -13.1373 2.23128
rclavicle -2.54444e-014 -6.36111e-015
rhumerus -11.1794 -50.2206 -21.9266
rradius 17.1397
rwrist -2.4769
rhand 2.44542 5.1736
rfingers 7.12502
rthumb 27.9305 -22.7691
lclavicle -2.54444e-014 -6.36111e-015
lhumerus -204.646 -201.986 179.985
lradius 18.0377
lwrist -37.8323
lhand -2.90782 25.6517
lfingers 7.12502
lthumb 22.8024 54.3239
rfemur 33.9768 -141.235 -90.2834
rtibia 34.9826
rfoot 41.9075 -21.1403
rtoes 62.83
lfemur 0.659407 -5.59781 -18.522
ltibia 19.5559
lfoot -14.4108 29.2155
ltoes -14.2775
189
root -6.13042 17.705 -19.8473 339.002 67.684 -24.1292
lowerback 3.05362 0.533221 9.69247
upperback -4.95685 1.8465 5.13667
thorax -6.86292 0.64364 -0.174042
lowerneck -4.63487 -19.5836 -15.0323
upperneck 18.8326 -27.6031 10.8654
head 10.3724 -13.0612 2.3435
rclavicle -3.68746e-014 1.19271e-014
rhumerus -11.7922 -53.9024 -20.8519
rradius 16.408
rwrist 1.36426
rhand 2.18881 6.51727
rfingers 7.12502
rthumb 27.6852 -21.465
lclavicle -3.68746e-014 1.19271e-014
lhumerus -206.408 -203.864 178.744
lradius 17.4631
lwrist -40.3989
lhand -1.17479 26.6403
lfingers 7.12502
lthumb 24.4647 55.0979
rfemur 34.1777 -141.706 -88.3698
rtibia 35.4552
rfoot 42.5437 -21.5118
rtoes 62.9728
lfemur 0.0171689 -4.91539 -18.8741
ltibia 20.1793
lfoot -15.8245 28.5177
ltoes -13.2975
190
root -6.14721 17.6161 -19.7679 342.428 66.3739 -21.3412
lowerback 3.69214 1.35369 10.7617
upperback -5.75559 3.03079 3.32868
thorax -7.88041 1.02375 -2.78652
lowerneck -3.5983 -20.0564 -13.7202
upperneck 19.3924 -28.7671 11.5594
head 10.4698 -13.4703 2.29372
rclavicle 4.33351e-014 5.725e-014
rhumerus -18.9773 -54.1353 -16.0202
rradius 16.6895
rwrist 2.35448
rhand 2.81187 6.54748
rfingers 7.12502
rthumb 28.2808 -21.3377
lclavicle 4.33351e-014 5.725e-014
lhumerus -204.491 -202.588 178.462
lradius 17.1594
lwrist -40.8996
lhand 0.814107 28.11
lfingers 7.12502
lthumb 26.3699 56.2964
rfemur 33.7724 -143.013 -85.2042
rtibia 35.7626
rfoot 45.2257 -19.3281
rtoes 62.6671
lfemur -0.759997 -4.15514 -19.1834
ltibia 20.784
lfoot -17.6817 27.8957
ltoes -11.9405
